<mxfile host="Electron" modified="2023-12-17T11:27:33.905Z" agent="Mozilla/5.0 (Windows NT 10.0; Win64; x64) AppleWebKit/537.36 (KHTML, like Gecko) draw.io/22.1.2 Chrome/114.0.5735.289 Electron/25.9.4 Safari/537.36" etag="1dURscn-Y7pxQoLlUrS_" version="22.1.2" type="device">
  <diagram name="ページ1" id="LE8fIzdrHe0wcv1LTvfw">
    <mxGraphModel dx="2429" dy="1434" grid="1" gridSize="10" guides="1" tooltips="1" connect="1" arrows="1" fold="1" page="1" pageScale="1" pageWidth="1600" pageHeight="1200" math="0" shadow="0">
      <root>
        <mxCell id="0" />
        <mxCell id="cFaB45KztUIKXS-_cTrr-4" value="背景" style="locked=1;" parent="0" visible="0" />
        <mxCell id="cFaB45KztUIKXS-_cTrr-5" value="" style="rounded=0;whiteSpace=wrap;html=1;strokeWidth=3;" parent="cFaB45KztUIKXS-_cTrr-4" vertex="1">
          <mxGeometry x="1" y="1" width="1595" height="1180" as="geometry" />
        </mxCell>
        <mxCell id="cFaB45KztUIKXS-_cTrr-6" value="" style="rounded=0;whiteSpace=wrap;html=1;fillColor=#B3B3B3;fontColor=#333333;strokeColor=#666666;" parent="cFaB45KztUIKXS-_cTrr-4" vertex="1">
          <mxGeometry width="1595" height="60" as="geometry" />
        </mxCell>
        <mxCell id="cFaB45KztUIKXS-_cTrr-7" value="&lt;font style=&quot;font-size: 48px;&quot;&gt;×&lt;/font&gt;" style="rounded=0;whiteSpace=wrap;html=1;" parent="cFaB45KztUIKXS-_cTrr-4" vertex="1">
          <mxGeometry x="1550" y="10" width="40" height="40" as="geometry" />
        </mxCell>
        <mxCell id="cFaB45KztUIKXS-_cTrr-8" value="" style="rounded=0;whiteSpace=wrap;html=1;" parent="cFaB45KztUIKXS-_cTrr-4" vertex="1">
          <mxGeometry x="830" y="670" width="120" height="60" as="geometry" />
        </mxCell>
        <mxCell id="cFaB45KztUIKXS-_cTrr-9" value="ウインドウ" style="locked=1;" parent="0" />
        <mxCell id="cFaB45KztUIKXS-_cTrr-10" value="" style="rounded=0;whiteSpace=wrap;html=1;strokeWidth=3;" parent="cFaB45KztUIKXS-_cTrr-9" vertex="1">
          <mxGeometry x="1" y="1" width="1595" height="1180" as="geometry" />
        </mxCell>
        <mxCell id="cFaB45KztUIKXS-_cTrr-11" value="" style="rounded=0;whiteSpace=wrap;html=1;fillColor=#B3B3B3;fontColor=#333333;strokeColor=#666666;" parent="cFaB45KztUIKXS-_cTrr-9" vertex="1">
          <mxGeometry width="1595" height="60" as="geometry" />
        </mxCell>
        <mxCell id="cFaB45KztUIKXS-_cTrr-12" value="&lt;font style=&quot;font-size: 48px;&quot;&gt;×&lt;/font&gt;" style="rounded=0;whiteSpace=wrap;html=1;" parent="cFaB45KztUIKXS-_cTrr-9" vertex="1">
          <mxGeometry x="1550" y="10" width="40" height="40" as="geometry" />
        </mxCell>
        <mxCell id="cFaB45KztUIKXS-_cTrr-14" value="名称未設定レイヤ" style="" parent="0" />
        <mxCell id="TxczZguwrJ-QLl2Ewce2-0" value="処理履歴" style="shape=table;startSize=60;container=1;collapsible=0;childLayout=tableLayout;strokeColor=default;fontSize=30;" parent="cFaB45KztUIKXS-_cTrr-14" vertex="1">
          <mxGeometry x="50" y="130" width="1450" height="360" as="geometry" />
        </mxCell>
        <mxCell id="TxczZguwrJ-QLl2Ewce2-1" value="" style="shape=tableRow;horizontal=0;startSize=0;swimlaneHead=0;swimlaneBody=0;strokeColor=inherit;top=0;left=0;bottom=0;right=0;collapsible=0;dropTarget=0;fillColor=none;points=[[0,0.5],[1,0.5]];portConstraint=eastwest;fontSize=16;" parent="TxczZguwrJ-QLl2Ewce2-0" vertex="1">
          <mxGeometry y="60" width="1450" height="75" as="geometry" />
        </mxCell>
        <mxCell id="TxczZguwrJ-QLl2Ewce2-25" style="shape=partialRectangle;html=1;whiteSpace=wrap;connectable=0;strokeColor=inherit;overflow=hidden;fillColor=none;top=0;left=0;bottom=0;right=0;pointerEvents=1;fontSize=16;" parent="TxczZguwrJ-QLl2Ewce2-1" vertex="1">
          <mxGeometry width="182" height="75" as="geometry">
            <mxRectangle width="182" height="75" as="alternateBounds" />
          </mxGeometry>
        </mxCell>
        <mxCell id="TxczZguwrJ-QLl2Ewce2-22" value="&lt;font style=&quot;font-size: 30px;&quot;&gt;掲載内容&lt;/font&gt;" style="shape=partialRectangle;html=1;whiteSpace=wrap;connectable=0;strokeColor=inherit;overflow=hidden;fillColor=none;top=0;left=0;bottom=0;right=0;pointerEvents=1;fontSize=16;" parent="TxczZguwrJ-QLl2Ewce2-1" vertex="1">
          <mxGeometry x="182" width="181" height="75" as="geometry">
            <mxRectangle width="181" height="75" as="alternateBounds" />
          </mxGeometry>
        </mxCell>
        <mxCell id="TxczZguwrJ-QLl2Ewce2-19" value="&lt;font style=&quot;font-size: 30px;&quot;&gt;最終作業者&lt;/font&gt;" style="shape=partialRectangle;html=1;whiteSpace=wrap;connectable=0;strokeColor=inherit;overflow=hidden;fillColor=none;top=0;left=0;bottom=0;right=0;pointerEvents=1;fontSize=16;" parent="TxczZguwrJ-QLl2Ewce2-1" vertex="1">
          <mxGeometry x="363" width="180" height="75" as="geometry">
            <mxRectangle width="180" height="75" as="alternateBounds" />
          </mxGeometry>
        </mxCell>
        <mxCell id="TxczZguwrJ-QLl2Ewce2-16" value="&lt;font style=&quot;font-size: 30px;&quot;&gt;代表者&lt;/font&gt;" style="shape=partialRectangle;html=1;whiteSpace=wrap;connectable=0;strokeColor=inherit;overflow=hidden;fillColor=none;top=0;left=0;bottom=0;right=0;pointerEvents=1;fontSize=16;" parent="TxczZguwrJ-QLl2Ewce2-1" vertex="1">
          <mxGeometry x="543" width="182" height="75" as="geometry">
            <mxRectangle width="182" height="75" as="alternateBounds" />
          </mxGeometry>
        </mxCell>
        <mxCell id="TxczZguwrJ-QLl2Ewce2-2" value="&lt;font style=&quot;font-size: 30px;&quot;&gt;会計責任者&lt;/font&gt;" style="shape=partialRectangle;html=1;whiteSpace=wrap;connectable=0;strokeColor=inherit;overflow=hidden;fillColor=none;top=0;left=0;bottom=0;right=0;pointerEvents=1;fontSize=16;" parent="TxczZguwrJ-QLl2Ewce2-1" vertex="1">
          <mxGeometry x="725" width="180" height="75" as="geometry">
            <mxRectangle width="180" height="75" as="alternateBounds" />
          </mxGeometry>
        </mxCell>
        <mxCell id="TxczZguwrJ-QLl2Ewce2-3" value="&lt;font style=&quot;font-size: 30px;&quot;&gt;事務担当者1&lt;/font&gt;" style="shape=partialRectangle;html=1;whiteSpace=wrap;connectable=0;strokeColor=inherit;overflow=hidden;fillColor=none;top=0;left=0;bottom=0;right=0;pointerEvents=1;fontSize=16;" parent="TxczZguwrJ-QLl2Ewce2-1" vertex="1">
          <mxGeometry x="905" width="182" height="75" as="geometry">
            <mxRectangle width="182" height="75" as="alternateBounds" />
          </mxGeometry>
        </mxCell>
        <mxCell id="TxczZguwrJ-QLl2Ewce2-13" value="&lt;font style=&quot;font-size: 30px;&quot;&gt;事務担当者2&lt;/font&gt;" style="shape=partialRectangle;html=1;whiteSpace=wrap;connectable=0;strokeColor=#666666;overflow=hidden;fillColor=none;top=0;left=0;bottom=0;right=0;pointerEvents=1;fontSize=16;fontColor=#333333;" parent="TxczZguwrJ-QLl2Ewce2-1" vertex="1">
          <mxGeometry x="1087" width="181" height="75" as="geometry">
            <mxRectangle width="181" height="75" as="alternateBounds" />
          </mxGeometry>
        </mxCell>
        <mxCell id="TxczZguwrJ-QLl2Ewce2-4" value="&lt;font style=&quot;font-size: 30px;&quot;&gt;事務担当者3&lt;/font&gt;" style="shape=partialRectangle;html=1;whiteSpace=wrap;connectable=0;strokeColor=#666666;overflow=hidden;fillColor=none;top=0;left=0;bottom=0;right=0;pointerEvents=1;fontSize=16;fontColor=#333333;" parent="TxczZguwrJ-QLl2Ewce2-1" vertex="1">
          <mxGeometry x="1268" width="182" height="75" as="geometry">
            <mxRectangle width="182" height="75" as="alternateBounds" />
          </mxGeometry>
        </mxCell>
        <mxCell id="TxczZguwrJ-QLl2Ewce2-9" value="" style="shape=tableRow;horizontal=0;startSize=0;swimlaneHead=0;swimlaneBody=0;strokeColor=inherit;top=0;left=0;bottom=0;right=0;collapsible=0;dropTarget=0;fillColor=none;points=[[0,0.5],[1,0.5]];portConstraint=eastwest;fontSize=16;" parent="TxczZguwrJ-QLl2Ewce2-0" vertex="1">
          <mxGeometry y="135" width="1450" height="75" as="geometry" />
        </mxCell>
        <mxCell id="TxczZguwrJ-QLl2Ewce2-27" value="&lt;font style=&quot;font-size: 30px;&quot;&gt;報告状況&lt;/font&gt;" style="shape=partialRectangle;html=1;whiteSpace=wrap;connectable=0;strokeColor=inherit;overflow=hidden;fillColor=none;top=0;left=0;bottom=0;right=0;pointerEvents=1;fontSize=16;" parent="TxczZguwrJ-QLl2Ewce2-9" vertex="1">
          <mxGeometry width="182" height="75" as="geometry">
            <mxRectangle width="182" height="75" as="alternateBounds" />
          </mxGeometry>
        </mxCell>
        <mxCell id="TxczZguwrJ-QLl2Ewce2-24" value="&lt;font style=&quot;font-size: 30px;&quot;&gt;報告除外&lt;/font&gt;" style="shape=partialRectangle;html=1;whiteSpace=wrap;connectable=0;strokeColor=inherit;overflow=hidden;fillColor=none;top=0;left=0;bottom=0;right=0;pointerEvents=1;fontSize=16;" parent="TxczZguwrJ-QLl2Ewce2-9" vertex="1">
          <mxGeometry x="182" width="181" height="75" as="geometry">
            <mxRectangle width="181" height="75" as="alternateBounds" />
          </mxGeometry>
        </mxCell>
        <mxCell id="TxczZguwrJ-QLl2Ewce2-21" value="&lt;font style=&quot;font-size: 30px;&quot;&gt;代表者&lt;/font&gt;" style="shape=partialRectangle;html=1;whiteSpace=wrap;connectable=0;strokeColor=#d79b00;overflow=hidden;fillColor=#ffe6cc;top=0;left=0;bottom=0;right=0;pointerEvents=1;fontSize=16;" parent="TxczZguwrJ-QLl2Ewce2-9" vertex="1">
          <mxGeometry x="363" width="180" height="75" as="geometry">
            <mxRectangle width="180" height="75" as="alternateBounds" />
          </mxGeometry>
        </mxCell>
        <mxCell id="TxczZguwrJ-QLl2Ewce2-18" value="&lt;font style=&quot;font-size: 30px;&quot;&gt;報告除外&lt;/font&gt;" style="shape=partialRectangle;html=1;whiteSpace=wrap;connectable=0;strokeColor=#d79b00;overflow=hidden;fillColor=#ffe6cc;top=0;left=0;bottom=0;right=0;pointerEvents=1;fontSize=16;" parent="TxczZguwrJ-QLl2Ewce2-9" vertex="1">
          <mxGeometry x="543" width="182" height="75" as="geometry">
            <mxRectangle width="182" height="75" as="alternateBounds" />
          </mxGeometry>
        </mxCell>
        <mxCell id="TxczZguwrJ-QLl2Ewce2-10" value="&lt;font style=&quot;font-size: 30px;&quot;&gt;報告対象&lt;/font&gt;" style="shape=partialRectangle;html=1;whiteSpace=wrap;connectable=0;strokeColor=inherit;overflow=hidden;fillColor=none;top=0;left=0;bottom=0;right=0;pointerEvents=1;fontSize=16;" parent="TxczZguwrJ-QLl2Ewce2-9" vertex="1">
          <mxGeometry x="725" width="180" height="75" as="geometry">
            <mxRectangle width="180" height="75" as="alternateBounds" />
          </mxGeometry>
        </mxCell>
        <mxCell id="TxczZguwrJ-QLl2Ewce2-11" value="&lt;font style=&quot;font-size: 30px;&quot;&gt;報告対象&lt;/font&gt;" style="shape=partialRectangle;html=1;whiteSpace=wrap;connectable=0;strokeColor=inherit;overflow=hidden;fillColor=none;top=0;left=0;bottom=0;right=0;pointerEvents=1;fontSize=16;" parent="TxczZguwrJ-QLl2Ewce2-9" vertex="1">
          <mxGeometry x="905" width="182" height="75" as="geometry">
            <mxRectangle width="182" height="75" as="alternateBounds" />
          </mxGeometry>
        </mxCell>
        <mxCell id="TxczZguwrJ-QLl2Ewce2-15" value="&lt;font style=&quot;font-size: 30px;&quot;&gt;権限なし&lt;/font&gt;" style="shape=partialRectangle;html=1;whiteSpace=wrap;connectable=0;strokeColor=#666666;overflow=hidden;fillColor=#f5f5f5;top=0;left=0;bottom=0;right=0;pointerEvents=1;fontSize=16;fontColor=#333333;" parent="TxczZguwrJ-QLl2Ewce2-9" vertex="1">
          <mxGeometry x="1087" width="181" height="75" as="geometry">
            <mxRectangle width="181" height="75" as="alternateBounds" />
          </mxGeometry>
        </mxCell>
        <mxCell id="TxczZguwrJ-QLl2Ewce2-12" value="&lt;font style=&quot;font-size: 30px;&quot;&gt;権限なし&lt;/font&gt;" style="shape=partialRectangle;html=1;whiteSpace=wrap;connectable=0;strokeColor=#666666;overflow=hidden;fillColor=#f5f5f5;top=0;left=0;bottom=0;right=0;pointerEvents=1;fontSize=16;fontColor=#333333;" parent="TxczZguwrJ-QLl2Ewce2-9" vertex="1">
          <mxGeometry x="1268" width="182" height="75" as="geometry">
            <mxRectangle width="182" height="75" as="alternateBounds" />
          </mxGeometry>
        </mxCell>
        <mxCell id="TxczZguwrJ-QLl2Ewce2-28" style="shape=tableRow;horizontal=0;startSize=0;swimlaneHead=0;swimlaneBody=0;strokeColor=inherit;top=0;left=0;bottom=0;right=0;collapsible=0;dropTarget=0;fillColor=none;points=[[0,0.5],[1,0.5]];portConstraint=eastwest;fontSize=16;" parent="TxczZguwrJ-QLl2Ewce2-0" vertex="1">
          <mxGeometry y="210" width="1450" height="75" as="geometry" />
        </mxCell>
        <mxCell id="TxczZguwrJ-QLl2Ewce2-29" value="&lt;font style=&quot;font-size: 30px;&quot;&gt;作業時間&lt;/font&gt;" style="shape=partialRectangle;html=1;whiteSpace=wrap;connectable=0;strokeColor=inherit;overflow=hidden;fillColor=none;top=0;left=0;bottom=0;right=0;pointerEvents=1;fontSize=16;" parent="TxczZguwrJ-QLl2Ewce2-28" vertex="1">
          <mxGeometry width="182" height="75" as="geometry">
            <mxRectangle width="182" height="75" as="alternateBounds" />
          </mxGeometry>
        </mxCell>
        <mxCell id="TxczZguwrJ-QLl2Ewce2-30" value="&lt;font style=&quot;font-size: 30px;&quot;&gt;2022-03-06 12:34:56&lt;/font&gt;" style="shape=partialRectangle;html=1;whiteSpace=wrap;connectable=0;strokeColor=inherit;overflow=hidden;fillColor=none;top=0;left=0;bottom=0;right=0;pointerEvents=1;fontSize=16;" parent="TxczZguwrJ-QLl2Ewce2-28" vertex="1">
          <mxGeometry x="182" width="181" height="75" as="geometry">
            <mxRectangle width="181" height="75" as="alternateBounds" />
          </mxGeometry>
        </mxCell>
        <mxCell id="TxczZguwrJ-QLl2Ewce2-31" value="&lt;font style=&quot;font-size: 30px;&quot;&gt;2022-03-06 12:34:56&lt;/font&gt;" style="shape=partialRectangle;html=1;whiteSpace=wrap;connectable=0;strokeColor=#d79b00;overflow=hidden;fillColor=#ffe6cc;top=0;left=0;bottom=0;right=0;pointerEvents=1;fontSize=16;" parent="TxczZguwrJ-QLl2Ewce2-28" vertex="1">
          <mxGeometry x="363" width="180" height="75" as="geometry">
            <mxRectangle width="180" height="75" as="alternateBounds" />
          </mxGeometry>
        </mxCell>
        <mxCell id="TxczZguwrJ-QLl2Ewce2-32" value="&lt;font style=&quot;font-size: 30px;&quot;&gt;2022-03-06 12:34:56&lt;/font&gt;" style="shape=partialRectangle;html=1;whiteSpace=wrap;connectable=0;strokeColor=#d79b00;overflow=hidden;fillColor=#ffe6cc;top=0;left=0;bottom=0;right=0;pointerEvents=1;fontSize=16;" parent="TxczZguwrJ-QLl2Ewce2-28" vertex="1">
          <mxGeometry x="543" width="182" height="75" as="geometry">
            <mxRectangle width="182" height="75" as="alternateBounds" />
          </mxGeometry>
        </mxCell>
        <mxCell id="TxczZguwrJ-QLl2Ewce2-33" value="&lt;font style=&quot;font-size: 30px;&quot;&gt;2022-03-06 12:34:56&lt;/font&gt;" style="shape=partialRectangle;html=1;whiteSpace=wrap;connectable=0;strokeColor=inherit;overflow=hidden;fillColor=none;top=0;left=0;bottom=0;right=0;pointerEvents=1;fontSize=16;" parent="TxczZguwrJ-QLl2Ewce2-28" vertex="1">
          <mxGeometry x="725" width="180" height="75" as="geometry">
            <mxRectangle width="180" height="75" as="alternateBounds" />
          </mxGeometry>
        </mxCell>
        <mxCell id="TxczZguwrJ-QLl2Ewce2-34" value="&lt;font style=&quot;font-size: 30px;&quot;&gt;2022-03-06 12:34:56&lt;/font&gt;" style="shape=partialRectangle;html=1;whiteSpace=wrap;connectable=0;strokeColor=inherit;overflow=hidden;fillColor=none;top=0;left=0;bottom=0;right=0;pointerEvents=1;fontSize=16;" parent="TxczZguwrJ-QLl2Ewce2-28" vertex="1">
          <mxGeometry x="905" width="182" height="75" as="geometry">
            <mxRectangle width="182" height="75" as="alternateBounds" />
          </mxGeometry>
        </mxCell>
        <mxCell id="TxczZguwrJ-QLl2Ewce2-35" value="&lt;font style=&quot;font-size: 30px;&quot;&gt;-&lt;/font&gt;" style="shape=partialRectangle;html=1;whiteSpace=wrap;connectable=0;strokeColor=#666666;overflow=hidden;fillColor=#f5f5f5;top=0;left=0;bottom=0;right=0;pointerEvents=1;fontSize=16;fontColor=#333333;" parent="TxczZguwrJ-QLl2Ewce2-28" vertex="1">
          <mxGeometry x="1087" width="181" height="75" as="geometry">
            <mxRectangle width="181" height="75" as="alternateBounds" />
          </mxGeometry>
        </mxCell>
        <mxCell id="TxczZguwrJ-QLl2Ewce2-36" value="&lt;font style=&quot;font-size: 30px;&quot;&gt;-&lt;/font&gt;" style="shape=partialRectangle;html=1;whiteSpace=wrap;connectable=0;strokeColor=#666666;overflow=hidden;fillColor=#f5f5f5;top=0;left=0;bottom=0;right=0;pointerEvents=1;fontSize=16;fontColor=#333333;" parent="TxczZguwrJ-QLl2Ewce2-28" vertex="1">
          <mxGeometry x="1268" width="182" height="75" as="geometry">
            <mxRectangle width="182" height="75" as="alternateBounds" />
          </mxGeometry>
        </mxCell>
        <mxCell id="TxczZguwrJ-QLl2Ewce2-37" style="shape=tableRow;horizontal=0;startSize=0;swimlaneHead=0;swimlaneBody=0;strokeColor=inherit;top=0;left=0;bottom=0;right=0;collapsible=0;dropTarget=0;fillColor=none;points=[[0,0.5],[1,0.5]];portConstraint=eastwest;fontSize=16;" parent="TxczZguwrJ-QLl2Ewce2-0" vertex="1">
          <mxGeometry y="285" width="1450" height="75" as="geometry" />
        </mxCell>
        <mxCell id="TxczZguwrJ-QLl2Ewce2-38" value="&lt;span style=&quot;font-size: 30px;&quot;&gt;仕訳&lt;/span&gt;" style="shape=partialRectangle;html=1;whiteSpace=wrap;connectable=0;strokeColor=inherit;overflow=hidden;fillColor=none;top=0;left=0;bottom=0;right=0;pointerEvents=1;fontSize=16;" parent="TxczZguwrJ-QLl2Ewce2-37" vertex="1">
          <mxGeometry width="182" height="75" as="geometry">
            <mxRectangle width="182" height="75" as="alternateBounds" />
          </mxGeometry>
        </mxCell>
        <mxCell id="TxczZguwrJ-QLl2Ewce2-39" value="&lt;font style=&quot;font-size: 30px;&quot;&gt;ー&lt;/font&gt;" style="shape=partialRectangle;html=1;whiteSpace=wrap;connectable=0;strokeColor=inherit;overflow=hidden;fillColor=none;top=0;left=0;bottom=0;right=0;pointerEvents=1;fontSize=16;" parent="TxczZguwrJ-QLl2Ewce2-37" vertex="1">
          <mxGeometry x="182" width="181" height="75" as="geometry">
            <mxRectangle width="181" height="75" as="alternateBounds" />
          </mxGeometry>
        </mxCell>
        <mxCell id="TxczZguwrJ-QLl2Ewce2-40" value="&lt;font style=&quot;font-size: 30px;&quot;&gt;ー&lt;/font&gt;" style="shape=partialRectangle;html=1;whiteSpace=wrap;connectable=0;strokeColor=#d79b00;overflow=hidden;fillColor=#ffe6cc;top=0;left=0;bottom=0;right=0;pointerEvents=1;fontSize=16;" parent="TxczZguwrJ-QLl2Ewce2-37" vertex="1">
          <mxGeometry x="363" width="180" height="75" as="geometry">
            <mxRectangle width="180" height="75" as="alternateBounds" />
          </mxGeometry>
        </mxCell>
        <mxCell id="TxczZguwrJ-QLl2Ewce2-41" value="&lt;font style=&quot;font-size: 30px;&quot;&gt;ー&lt;/font&gt;" style="shape=partialRectangle;html=1;whiteSpace=wrap;connectable=0;strokeColor=#d79b00;overflow=hidden;fillColor=#ffe6cc;top=0;left=0;bottom=0;right=0;pointerEvents=1;fontSize=16;" parent="TxczZguwrJ-QLl2Ewce2-37" vertex="1">
          <mxGeometry x="543" width="182" height="75" as="geometry">
            <mxRectangle width="182" height="75" as="alternateBounds" />
          </mxGeometry>
        </mxCell>
        <mxCell id="TxczZguwrJ-QLl2Ewce2-42" value="&lt;font style=&quot;font-size: 30px;&quot;&gt;寄付斡旋&lt;br&gt;個人(8-2)&lt;/font&gt;" style="shape=partialRectangle;html=1;whiteSpace=wrap;connectable=0;strokeColor=inherit;overflow=hidden;fillColor=none;top=0;left=0;bottom=0;right=0;pointerEvents=1;fontSize=16;" parent="TxczZguwrJ-QLl2Ewce2-37" vertex="1">
          <mxGeometry x="725" width="180" height="75" as="geometry">
            <mxRectangle width="180" height="75" as="alternateBounds" />
          </mxGeometry>
        </mxCell>
        <mxCell id="TxczZguwrJ-QLl2Ewce2-43" value="&lt;font style=&quot;font-size: 30px;&quot;&gt;寄付(7-1)&lt;/font&gt;" style="shape=partialRectangle;html=1;whiteSpace=wrap;connectable=0;strokeColor=inherit;overflow=hidden;fillColor=none;top=0;left=0;bottom=0;right=0;pointerEvents=1;fontSize=16;" parent="TxczZguwrJ-QLl2Ewce2-37" vertex="1">
          <mxGeometry x="905" width="182" height="75" as="geometry">
            <mxRectangle width="182" height="75" as="alternateBounds" />
          </mxGeometry>
        </mxCell>
        <mxCell id="TxczZguwrJ-QLl2Ewce2-44" value="&lt;font style=&quot;font-size: 30px;&quot;&gt;-&lt;/font&gt;" style="shape=partialRectangle;html=1;whiteSpace=wrap;connectable=0;strokeColor=#666666;overflow=hidden;fillColor=#f5f5f5;top=0;left=0;bottom=0;right=0;pointerEvents=1;fontSize=16;fontColor=#333333;" parent="TxczZguwrJ-QLl2Ewce2-37" vertex="1">
          <mxGeometry x="1087" width="181" height="75" as="geometry">
            <mxRectangle width="181" height="75" as="alternateBounds" />
          </mxGeometry>
        </mxCell>
        <mxCell id="TxczZguwrJ-QLl2Ewce2-45" value="&lt;font style=&quot;font-size: 30px;&quot;&gt;-&lt;/font&gt;" style="shape=partialRectangle;html=1;whiteSpace=wrap;connectable=0;strokeColor=#666666;overflow=hidden;fillColor=#f5f5f5;top=0;left=0;bottom=0;right=0;pointerEvents=1;fontSize=16;fontColor=#333333;" parent="TxczZguwrJ-QLl2Ewce2-37" vertex="1">
          <mxGeometry x="1268" width="182" height="75" as="geometry">
            <mxRectangle width="182" height="75" as="alternateBounds" />
          </mxGeometry>
        </mxCell>
        <mxCell id="TxczZguwrJ-QLl2Ewce2-46" value="&lt;div style=&quot;&quot;&gt;&lt;font style=&quot;font-size: 30px;&quot;&gt;▼ 会計責任者&lt;/font&gt;&lt;/div&gt;" style="rounded=0;whiteSpace=wrap;html=1;align=left;" parent="cFaB45KztUIKXS-_cTrr-14" vertex="1">
          <mxGeometry x="52" y="586" width="346" height="48" as="geometry" />
        </mxCell>
        <mxCell id="TxczZguwrJ-QLl2Ewce2-47" value="&lt;font style=&quot;font-size: 30px;&quot;&gt;履歴詳細&lt;/font&gt;" style="rounded=0;whiteSpace=wrap;html=1;align=left;dashed=1;dashPattern=8 8;verticalAlign=bottom;" parent="cFaB45KztUIKXS-_cTrr-14" vertex="1">
          <mxGeometry x="53" y="520" width="230" height="46" as="geometry" />
        </mxCell>
        <mxCell id="TxczZguwrJ-QLl2Ewce2-48" value="" style="childLayout=tableLayout;recursiveResize=0;shadow=0;fillColor=none;" parent="cFaB45KztUIKXS-_cTrr-14" vertex="1">
          <mxGeometry x="50" y="646" width="1470" height="288" as="geometry" />
        </mxCell>
        <mxCell id="TxczZguwrJ-QLl2Ewce2-49" value="" style="shape=tableRow;horizontal=0;startSize=0;swimlaneHead=0;swimlaneBody=0;top=0;left=0;bottom=0;right=0;dropTarget=0;collapsible=0;recursiveResize=0;expand=0;fontStyle=0;fillColor=none;strokeColor=inherit;" parent="TxczZguwrJ-QLl2Ewce2-48" vertex="1">
          <mxGeometry width="1470" height="58" as="geometry" />
        </mxCell>
        <mxCell id="TxczZguwrJ-QLl2Ewce2-64" value="&lt;font style=&quot;font-size: 30px;&quot;&gt;更新時間&lt;/font&gt;" style="connectable=0;recursiveResize=0;strokeColor=inherit;fillColor=none;align=center;whiteSpace=wrap;html=1;" parent="TxczZguwrJ-QLl2Ewce2-49" vertex="1">
          <mxGeometry width="245" height="58" as="geometry">
            <mxRectangle width="245" height="58" as="alternateBounds" />
          </mxGeometry>
        </mxCell>
        <mxCell id="TxczZguwrJ-QLl2Ewce2-61" value="&lt;font style=&quot;font-size: 30px;&quot;&gt;動作内容&lt;/font&gt;" style="connectable=0;recursiveResize=0;strokeColor=inherit;fillColor=none;align=center;whiteSpace=wrap;html=1;" parent="TxczZguwrJ-QLl2Ewce2-49" vertex="1">
          <mxGeometry x="245" width="245" height="58" as="geometry">
            <mxRectangle width="245" height="58" as="alternateBounds" />
          </mxGeometry>
        </mxCell>
        <mxCell id="TxczZguwrJ-QLl2Ewce2-50" value="&lt;span style=&quot;font-size: 30px;&quot;&gt;掲載内容&lt;/span&gt;" style="connectable=0;recursiveResize=0;strokeColor=inherit;fillColor=none;align=center;whiteSpace=wrap;html=1;" parent="TxczZguwrJ-QLl2Ewce2-49" vertex="1">
          <mxGeometry x="490" width="245" height="58" as="geometry">
            <mxRectangle width="245" height="58" as="alternateBounds" />
          </mxGeometry>
        </mxCell>
        <mxCell id="TxczZguwrJ-QLl2Ewce2-51" value="&lt;font style=&quot;font-size: 30px;&quot;&gt;仕訳&lt;/font&gt;" style="connectable=0;recursiveResize=0;strokeColor=inherit;fillColor=none;align=center;whiteSpace=wrap;html=1;" parent="TxczZguwrJ-QLl2Ewce2-49" vertex="1">
          <mxGeometry x="735" width="244" height="58" as="geometry">
            <mxRectangle width="244" height="58" as="alternateBounds" />
          </mxGeometry>
        </mxCell>
        <mxCell id="TxczZguwrJ-QLl2Ewce2-52" value="&lt;font style=&quot;font-size: 30px;&quot;&gt;付記&lt;/font&gt;" style="connectable=0;recursiveResize=0;strokeColor=inherit;fillColor=none;align=center;whiteSpace=wrap;html=1;" parent="TxczZguwrJ-QLl2Ewce2-49" vertex="1">
          <mxGeometry x="979" width="246" height="58" as="geometry">
            <mxRectangle width="246" height="58" as="alternateBounds" />
          </mxGeometry>
        </mxCell>
        <mxCell id="TxczZguwrJ-QLl2Ewce2-73" style="connectable=0;recursiveResize=0;strokeColor=inherit;fillColor=none;align=center;whiteSpace=wrap;html=1;" parent="TxczZguwrJ-QLl2Ewce2-49" vertex="1">
          <mxGeometry x="1225" width="245" height="58" as="geometry">
            <mxRectangle width="245" height="58" as="alternateBounds" />
          </mxGeometry>
        </mxCell>
        <mxCell id="TxczZguwrJ-QLl2Ewce2-53" style="shape=tableRow;horizontal=0;startSize=0;swimlaneHead=0;swimlaneBody=0;top=0;left=0;bottom=0;right=0;dropTarget=0;collapsible=0;recursiveResize=0;expand=0;fontStyle=0;fillColor=none;strokeColor=inherit;" parent="TxczZguwrJ-QLl2Ewce2-48" vertex="1">
          <mxGeometry y="58" width="1470" height="56" as="geometry" />
        </mxCell>
        <mxCell id="TxczZguwrJ-QLl2Ewce2-65" value="&lt;font style=&quot;font-size: 24px;&quot;&gt;2022-03-06 12:34:56&lt;/font&gt;" style="connectable=0;recursiveResize=0;strokeColor=inherit;fillColor=none;align=center;whiteSpace=wrap;html=1;" parent="TxczZguwrJ-QLl2Ewce2-53" vertex="1">
          <mxGeometry width="245" height="56" as="geometry">
            <mxRectangle width="245" height="56" as="alternateBounds" />
          </mxGeometry>
        </mxCell>
        <mxCell id="TxczZguwrJ-QLl2Ewce2-62" value="&lt;font style=&quot;font-size: 30px;&quot;&gt;初回登録&lt;/font&gt;" style="connectable=0;recursiveResize=0;strokeColor=inherit;fillColor=none;align=center;whiteSpace=wrap;html=1;" parent="TxczZguwrJ-QLl2Ewce2-53" vertex="1">
          <mxGeometry x="245" width="245" height="56" as="geometry">
            <mxRectangle width="245" height="56" as="alternateBounds" />
          </mxGeometry>
        </mxCell>
        <mxCell id="TxczZguwrJ-QLl2Ewce2-54" value="&lt;font style=&quot;font-size: 30px;&quot;&gt;報告対象&lt;/font&gt;" style="connectable=0;recursiveResize=0;strokeColor=inherit;fillColor=none;align=center;whiteSpace=wrap;html=1;" parent="TxczZguwrJ-QLl2Ewce2-53" vertex="1">
          <mxGeometry x="490" width="245" height="56" as="geometry">
            <mxRectangle width="245" height="56" as="alternateBounds" />
          </mxGeometry>
        </mxCell>
        <mxCell id="TxczZguwrJ-QLl2Ewce2-55" value="&lt;font style=&quot;font-size: 30px;&quot;&gt;寄付個人(7-1)&lt;/font&gt;" style="connectable=0;recursiveResize=0;strokeColor=inherit;fillColor=none;align=center;whiteSpace=wrap;html=1;" parent="TxczZguwrJ-QLl2Ewce2-53" vertex="1">
          <mxGeometry x="735" width="244" height="56" as="geometry">
            <mxRectangle width="244" height="56" as="alternateBounds" />
          </mxGeometry>
        </mxCell>
        <mxCell id="TxczZguwrJ-QLl2Ewce2-56" value="&lt;span style=&quot;font-size: 30px;&quot;&gt;－&lt;/span&gt;" style="connectable=0;recursiveResize=0;strokeColor=inherit;fillColor=none;align=center;whiteSpace=wrap;html=1;" parent="TxczZguwrJ-QLl2Ewce2-53" vertex="1">
          <mxGeometry x="979" width="246" height="56" as="geometry">
            <mxRectangle width="246" height="56" as="alternateBounds" />
          </mxGeometry>
        </mxCell>
        <mxCell id="TxczZguwrJ-QLl2Ewce2-74" value="" style="connectable=0;recursiveResize=0;strokeColor=inherit;fillColor=none;align=center;whiteSpace=wrap;html=1;" parent="TxczZguwrJ-QLl2Ewce2-53" vertex="1">
          <mxGeometry x="1225" width="245" height="56" as="geometry">
            <mxRectangle width="245" height="56" as="alternateBounds" />
          </mxGeometry>
        </mxCell>
        <mxCell id="TxczZguwrJ-QLl2Ewce2-57" style="shape=tableRow;horizontal=0;startSize=0;swimlaneHead=0;swimlaneBody=0;top=0;left=0;bottom=0;right=0;dropTarget=0;collapsible=0;recursiveResize=0;expand=0;fontStyle=0;fillColor=none;strokeColor=inherit;" parent="TxczZguwrJ-QLl2Ewce2-48" vertex="1">
          <mxGeometry y="114" width="1470" height="58" as="geometry" />
        </mxCell>
        <mxCell id="TxczZguwrJ-QLl2Ewce2-66" value="&lt;font style=&quot;font-size: 24px;&quot;&gt;2022-03-06 12:34:56&lt;/font&gt;" style="connectable=0;recursiveResize=0;strokeColor=inherit;fillColor=none;align=center;whiteSpace=wrap;html=1;" parent="TxczZguwrJ-QLl2Ewce2-57" vertex="1">
          <mxGeometry width="245" height="58" as="geometry">
            <mxRectangle width="245" height="58" as="alternateBounds" />
          </mxGeometry>
        </mxCell>
        <mxCell id="TxczZguwrJ-QLl2Ewce2-63" value="&lt;font style=&quot;font-size: 30px;&quot;&gt;データ編集&lt;/font&gt;" style="connectable=0;recursiveResize=0;strokeColor=inherit;fillColor=none;align=center;whiteSpace=wrap;html=1;" parent="TxczZguwrJ-QLl2Ewce2-57" vertex="1">
          <mxGeometry x="245" width="245" height="58" as="geometry">
            <mxRectangle width="245" height="58" as="alternateBounds" />
          </mxGeometry>
        </mxCell>
        <mxCell id="TxczZguwrJ-QLl2Ewce2-58" value="&lt;font style=&quot;font-size: 30px;&quot;&gt;報告除外&lt;/font&gt;" style="connectable=0;recursiveResize=0;strokeColor=inherit;fillColor=none;align=center;whiteSpace=wrap;html=1;" parent="TxczZguwrJ-QLl2Ewce2-57" vertex="1">
          <mxGeometry x="490" width="245" height="58" as="geometry">
            <mxRectangle width="245" height="58" as="alternateBounds" />
          </mxGeometry>
        </mxCell>
        <mxCell id="TxczZguwrJ-QLl2Ewce2-59" value="&lt;font style=&quot;font-size: 30px;&quot;&gt;－&lt;/font&gt;" style="connectable=0;recursiveResize=0;strokeColor=inherit;fillColor=none;align=center;whiteSpace=wrap;html=1;" parent="TxczZguwrJ-QLl2Ewce2-57" vertex="1">
          <mxGeometry x="735" width="244" height="58" as="geometry">
            <mxRectangle width="244" height="58" as="alternateBounds" />
          </mxGeometry>
        </mxCell>
        <mxCell id="TxczZguwrJ-QLl2Ewce2-60" value="&lt;font style=&quot;font-size: 30px;&quot;&gt;－&lt;/font&gt;" style="connectable=0;recursiveResize=0;strokeColor=inherit;fillColor=none;align=center;whiteSpace=wrap;html=1;" parent="TxczZguwrJ-QLl2Ewce2-57" vertex="1">
          <mxGeometry x="979" width="246" height="58" as="geometry">
            <mxRectangle width="246" height="58" as="alternateBounds" />
          </mxGeometry>
        </mxCell>
        <mxCell id="TxczZguwrJ-QLl2Ewce2-75" style="connectable=0;recursiveResize=0;strokeColor=inherit;fillColor=none;align=center;whiteSpace=wrap;html=1;" parent="TxczZguwrJ-QLl2Ewce2-57" vertex="1">
          <mxGeometry x="1225" width="245" height="58" as="geometry">
            <mxRectangle width="245" height="58" as="alternateBounds" />
          </mxGeometry>
        </mxCell>
        <mxCell id="TxczZguwrJ-QLl2Ewce2-67" style="shape=tableRow;horizontal=0;startSize=0;swimlaneHead=0;swimlaneBody=0;top=0;left=0;bottom=0;right=0;dropTarget=0;collapsible=0;recursiveResize=0;expand=0;fontStyle=0;fillColor=none;strokeColor=inherit;" parent="TxczZguwrJ-QLl2Ewce2-48" vertex="1">
          <mxGeometry y="172" width="1470" height="58" as="geometry" />
        </mxCell>
        <mxCell id="TxczZguwrJ-QLl2Ewce2-68" value="&lt;font style=&quot;font-size: 24px;&quot;&gt;2022-03-06 12:34:56&lt;/font&gt;" style="connectable=0;recursiveResize=0;strokeColor=inherit;fillColor=none;align=center;whiteSpace=wrap;html=1;" parent="TxczZguwrJ-QLl2Ewce2-67" vertex="1">
          <mxGeometry width="245" height="58" as="geometry">
            <mxRectangle width="245" height="58" as="alternateBounds" />
          </mxGeometry>
        </mxCell>
        <mxCell id="TxczZguwrJ-QLl2Ewce2-69" value="&lt;font style=&quot;font-size: 30px;&quot;&gt;データ編集&lt;/font&gt;" style="connectable=0;recursiveResize=0;strokeColor=inherit;fillColor=none;align=center;whiteSpace=wrap;html=1;" parent="TxczZguwrJ-QLl2Ewce2-67" vertex="1">
          <mxGeometry x="245" width="245" height="58" as="geometry">
            <mxRectangle width="245" height="58" as="alternateBounds" />
          </mxGeometry>
        </mxCell>
        <mxCell id="TxczZguwrJ-QLl2Ewce2-70" value="&lt;font style=&quot;font-size: 30px;&quot;&gt;報告対象&lt;/font&gt;" style="connectable=0;recursiveResize=0;strokeColor=inherit;fillColor=none;align=center;whiteSpace=wrap;html=1;" parent="TxczZguwrJ-QLl2Ewce2-67" vertex="1">
          <mxGeometry x="490" width="245" height="58" as="geometry">
            <mxRectangle width="245" height="58" as="alternateBounds" />
          </mxGeometry>
        </mxCell>
        <mxCell id="TxczZguwrJ-QLl2Ewce2-71" value="&lt;font style=&quot;font-size: 30px;&quot;&gt;寄付斡旋(8-2)&lt;/font&gt;" style="connectable=0;recursiveResize=0;strokeColor=inherit;fillColor=none;align=center;whiteSpace=wrap;html=1;" parent="TxczZguwrJ-QLl2Ewce2-67" vertex="1">
          <mxGeometry x="735" width="244" height="58" as="geometry">
            <mxRectangle width="244" height="58" as="alternateBounds" />
          </mxGeometry>
        </mxCell>
        <mxCell id="TxczZguwrJ-QLl2Ewce2-72" value="&lt;font style=&quot;font-size: 24px;&quot;&gt;少なくとも寄付…&lt;/font&gt;" style="connectable=0;recursiveResize=0;strokeColor=inherit;fillColor=none;align=left;whiteSpace=wrap;html=1;" parent="TxczZguwrJ-QLl2Ewce2-67" vertex="1">
          <mxGeometry x="979" width="246" height="58" as="geometry">
            <mxRectangle width="246" height="58" as="alternateBounds" />
          </mxGeometry>
        </mxCell>
        <mxCell id="TxczZguwrJ-QLl2Ewce2-76" style="connectable=0;recursiveResize=0;strokeColor=inherit;fillColor=none;align=center;whiteSpace=wrap;html=1;" parent="TxczZguwrJ-QLl2Ewce2-67" vertex="1">
          <mxGeometry x="1225" width="245" height="58" as="geometry">
            <mxRectangle width="245" height="58" as="alternateBounds" />
          </mxGeometry>
        </mxCell>
        <mxCell id="TxczZguwrJ-QLl2Ewce2-78" style="shape=tableRow;horizontal=0;startSize=0;swimlaneHead=0;swimlaneBody=0;top=0;left=0;bottom=0;right=0;dropTarget=0;collapsible=0;recursiveResize=0;expand=0;fontStyle=0;fillColor=none;strokeColor=inherit;" parent="TxczZguwrJ-QLl2Ewce2-48" vertex="1">
          <mxGeometry y="230" width="1470" height="58" as="geometry" />
        </mxCell>
        <mxCell id="TxczZguwrJ-QLl2Ewce2-79" value="&lt;font style=&quot;font-size: 24px;&quot;&gt;2022-03-06 12:34:56&lt;/font&gt;" style="connectable=0;recursiveResize=0;strokeColor=inherit;fillColor=none;align=center;whiteSpace=wrap;html=1;" parent="TxczZguwrJ-QLl2Ewce2-78" vertex="1">
          <mxGeometry width="245" height="58" as="geometry">
            <mxRectangle width="245" height="58" as="alternateBounds" />
          </mxGeometry>
        </mxCell>
        <mxCell id="TxczZguwrJ-QLl2Ewce2-80" value="&lt;font style=&quot;font-size: 30px;&quot;&gt;意見付記&lt;/font&gt;" style="connectable=0;recursiveResize=0;strokeColor=inherit;fillColor=none;align=center;whiteSpace=wrap;html=1;" parent="TxczZguwrJ-QLl2Ewce2-78" vertex="1">
          <mxGeometry x="245" width="245" height="58" as="geometry">
            <mxRectangle width="245" height="58" as="alternateBounds" />
          </mxGeometry>
        </mxCell>
        <mxCell id="TxczZguwrJ-QLl2Ewce2-81" value="&lt;font style=&quot;font-size: 30px;&quot;&gt;－&lt;/font&gt;" style="connectable=0;recursiveResize=0;strokeColor=inherit;fillColor=none;align=center;whiteSpace=wrap;html=1;" parent="TxczZguwrJ-QLl2Ewce2-78" vertex="1">
          <mxGeometry x="490" width="245" height="58" as="geometry">
            <mxRectangle width="245" height="58" as="alternateBounds" />
          </mxGeometry>
        </mxCell>
        <mxCell id="TxczZguwrJ-QLl2Ewce2-82" value="&lt;font style=&quot;font-size: 30px;&quot;&gt;－&lt;/font&gt;" style="connectable=0;recursiveResize=0;strokeColor=inherit;fillColor=none;align=center;whiteSpace=wrap;html=1;" parent="TxczZguwrJ-QLl2Ewce2-78" vertex="1">
          <mxGeometry x="735" width="244" height="58" as="geometry">
            <mxRectangle width="244" height="58" as="alternateBounds" />
          </mxGeometry>
        </mxCell>
        <mxCell id="TxczZguwrJ-QLl2Ewce2-83" value="&lt;font style=&quot;font-size: 24px;&quot;&gt;××法の条文…&lt;/font&gt;" style="connectable=0;recursiveResize=0;strokeColor=inherit;fillColor=none;align=left;whiteSpace=wrap;html=1;" parent="TxczZguwrJ-QLl2Ewce2-78" vertex="1">
          <mxGeometry x="979" width="246" height="58" as="geometry">
            <mxRectangle width="246" height="58" as="alternateBounds" />
          </mxGeometry>
        </mxCell>
        <mxCell id="TxczZguwrJ-QLl2Ewce2-84" style="connectable=0;recursiveResize=0;strokeColor=inherit;fillColor=none;align=center;whiteSpace=wrap;html=1;" parent="TxczZguwrJ-QLl2Ewce2-78" vertex="1">
          <mxGeometry x="1225" width="245" height="58" as="geometry">
            <mxRectangle width="245" height="58" as="alternateBounds" />
          </mxGeometry>
        </mxCell>
        <mxCell id="TxczZguwrJ-QLl2Ewce2-77" value="&lt;font style=&quot;font-size: 30px;&quot;&gt;入力復元&lt;/font&gt;" style="rounded=1;whiteSpace=wrap;html=1;" parent="cFaB45KztUIKXS-_cTrr-14" vertex="1">
          <mxGeometry x="1324" y="708" width="140" height="48" as="geometry" />
        </mxCell>
        <mxCell id="TxczZguwrJ-QLl2Ewce2-85" value="&lt;font style=&quot;font-size: 30px;&quot;&gt;入力復元&lt;/font&gt;" style="rounded=1;whiteSpace=wrap;html=1;" parent="cFaB45KztUIKXS-_cTrr-14" vertex="1">
          <mxGeometry x="1325" y="763" width="140" height="48" as="geometry" />
        </mxCell>
        <mxCell id="TxczZguwrJ-QLl2Ewce2-86" value="&lt;font style=&quot;font-size: 30px;&quot;&gt;入力復元&lt;/font&gt;" style="rounded=1;whiteSpace=wrap;html=1;" parent="cFaB45KztUIKXS-_cTrr-14" vertex="1">
          <mxGeometry x="1324" y="822" width="140" height="48" as="geometry" />
        </mxCell>
      </root>
    </mxGraphModel>
  </diagram>
</mxfile>
